<?xml version="1.0" encoding="UTF-8" standalone="no"?>
<!-- Created with Inkscape (http://www.inkscape.org/) -->

<svg
   width="264.58334mm"
   height="264.58334mm"
   viewBox="0 0 264.58334 264.58334"
   version="1.1"
   id="svg1"
   inkscape:version="1.3.2 (091e20e, 2023-11-25, custom)"
   sodipodi:docname="squareLogo.svg"
   xmlns:inkscape="http://www.inkscape.org/namespaces/inkscape"
   xmlns:sodipodi="http://sodipodi.sourceforge.net/DTD/sodipodi-0.dtd"
   xmlns="http://www.w3.org/2000/svg"
   xmlns:svg="http://www.w3.org/2000/svg">
  <sodipodi:namedview
     id="namedview1"
     pagecolor="#505050"
     bordercolor="#ffffff"
     borderopacity="1"
     inkscape:showpageshadow="0"
     inkscape:pageopacity="0"
     inkscape:pagecheckerboard="1"
     inkscape:deskcolor="#505050"
     inkscape:document-units="px"
     showguides="true"
     inkscape:connector-spacing="65"
     inkscape:zoom="2.2203152"
     inkscape:cx="56.973893"
     inkscape:cy="564.55948"
     inkscape:window-width="1920"
     inkscape:window-height="1009"
     inkscape:window-x="-8"
     inkscape:window-y="-8"
     inkscape:window-maximized="1"
     inkscape:current-layer="layer1" />
  <defs
     id="defs1">
    <inkscape:path-effect
       effect="fillet_chamfer"
       id="path-effect1"
       is_visible="true"
       lpeversion="1"
       nodesatellites_param="F,0,0,1,0,0,0,1 @ F,0,0,1,0,0,0,1 @ F,0,0,1,0,0,0,1 @ F,0,0,1,0,0,0,1 @ F,0,0,1,0,0,0,1 @ F,0,0,1,0,0,0,1 @ F,0,0,1,0,0,0,1 @ F,0,0,1,0,0,0,1 @ F,0,0,1,0,0,0,1 @ F,0,0,1,0,0,0,1 @ F,0,0,1,0,0,0,1 @ F,0,0,1,0,0,0,1 @ F,0,0,1,0,0,0,1 @ F,0,0,1,0,0,0,1 @ F,0,0,1,0,0,0,1 @ F,0,0,1,0,0,0,1 @ F,0,0,1,0,0,0,1 @ F,0,0,1,0,0,0,1 @ F,0,0,1,0,0,0,1 @ F,0,0,1,0,0,0,1 @ F,0,0,1,0,0,0,1 @ F,0,0,1,0,0,0,1 @ F,0,0,1,0,0,0,1 @ F,0,0,1,0,0,0,1 @ F,0,0,1,0,0,0,1 @ F,0,0,1,0,0,0,1 @ F,0,0,1,0,0,0,1 @ F,0,0,1,0,0,0,1 @ F,0,0,1,0,0,0,1 @ F,0,0,1,0,0,0,1 @ F,0,0,1,0,0,0,1 @ F,0,0,1,0,0,0,1 @ F,0,0,1,0,0,0,1 @ F,0,0,1,0,0,0,1 @ F,0,0,1,0,0,0,1 @ F,0,0,1,0,0,0,1 @ F,0,0,1,0,0,0,1 @ F,0,0,1,0,0,0,1 @ F,0,0,1,0,0,0,1 | F,0,0,1,0,0,0,1 @ F,0,0,1,0,0,0,1 @ F,0,0,1,0,0,0,1 @ F,0,0,1,0,0,0,1 @ F,0,0,1,0,0,0,1 @ F,0,0,1,0,0,0,1 @ F,0,0,1,0,0,0,1 @ F,0,0,1,0,0,0,1 @ F,0,0,1,0,0,0,1 @ F,0,0,1,0,0,0,1 @ F,0,0,1,0,0,0,1 @ F,0,0,1,0,0,0,1 @ F,0,0,1,0,0,0,1 @ F,0,0,1,0,0,0,1 @ F,0,0,1,0,0,0,1 @ F,0,0,1,0,0,0,1 @ F,0,0,1,0,0,0,1 @ F,0,0,1,0,0,0,1 @ F,0,0,1,0,0,0,1 @ F,0,0,1,0,0,0,1"
       radius="0"
       unit="px"
       method="auto"
       mode="F"
       chamfer_steps="1"
       flexible="false"
       use_knot_distance="true"
       apply_no_radius="true"
       apply_with_radius="true"
       only_selected="false"
       hide_knots="false" />
  </defs>
  <g
     inkscape:label="Layer 1"
     inkscape:groupmode="layer"
     id="layer1">
    <rect
       style="fill:#1a73e8;stroke-width:0.511274"
       id="rect1"
       width="264.58331"
       height="264.58331"
       x="0"
       y="0" />
    <path
       d="M 3.547204,128.90926 V -4.8372149e-4 h 28.03138 L 73.020037,65.925168 q 1.903365,3.028082 4.84493,8.132561 2.941564,5.10448 6.142679,10.987609 3.287631,5.796612 6.229195,11.247158 L 87.20876,103.12731 Q 86.94921,97.244179 86.68966,89.630718 86.43011,81.93074 86.343594,74.836379 86.257077,67.742017 86.257077,63.762253 V -4.8372149e-4 H 112.81767 V 128.90926 H 84.699778 L 47.151572,69.212799 Q 44.815624,65.492585 41.268443,59.52294 37.721263,53.466777 33.308916,45.853316 28.983086,38.153339 24.311189,29.588195 l 4.671897,-3.028081 q 0.519099,9.516826 0.778649,17.908937 0.25955,8.305594 0.346066,14.707822 0.08652,6.315712 0.08652,9.94941 v 59.782977 z m 123.545716,0 V 108.3183 l 57.01444,-70.078445 q 5.01796,-6.142679 10.38199,-12.198841 5.36403,-6.056162 10.90109,-12.198841 l 3.1146,8.997727 q -8.21908,0 -16.43816,0 -8.13256,0 -16.35163,0 H 128.99628 V -4.8372149e-4 H 229.61509 V 20.590468 l -56.06276,69.386316 q -5.19099,6.315712 -10.64154,12.631426 -5.36403,6.22919 -11.07413,12.54491 l -3.11459,-9.08425 q 8.13256,0 16.26512,0 8.13256,0 16.26512,0 h 48.9684 v 22.84039 z"
       id="path8"
       style="font-weight:bold;font-size:177.186px;font-family:Inter;-inkscape-font-specification:'Inter Bold';letter-spacing:0px;word-spacing:0px;fill:#d3d3d3;stroke-width:0.506242" />
    <path
       d="m 52.342569,264.58313 c -11.016448,0 -20.417919,-1.73033 -28.204413,-5.191 C 16.351661,255.87379 10.382016,250.79815 6.2292188,244.16521 2.0764218,237.53227 2.3275614e-5,229.5439 2.3275614e-5,220.20011 H 25.695455 c 0.115355,4.72957 1.240071,8.76701 3.374147,12.11232 2.191754,3.34531 5.277513,5.91197 9.257277,7.69998 3.979763,1.78801 8.709338,2.68202 14.188723,2.68202 4.960285,0 9.257277,-0.6633 12.890974,-1.98989 3.691375,-1.38426 6.546423,-3.31646 8.565144,-5.79661 2.076398,-2.48014 3.114597,-5.39286 3.114597,-8.73817 0,-2.76853 -0.807488,-5.16216 -2.422465,-7.18088 -1.557299,-2.0764 -4.037441,-3.89325 -7.440428,-5.45055 -3.345309,-1.5573 -7.757655,-2.91273 -13.23704,-4.06628 L 40.403277,206.53049 C 27.59882,203.76196 18.081993,199.40729 11.852798,193.46648 5.6236025,187.52567 2.5090048,179.94105 2.5090048,170.71261 c 0,-7.84417 2.0475596,-14.67898 6.1426789,-20.50443 4.0951193,-5.88313 9.8052153,-10.46851 17.1302873,-13.75614 7.382751,-3.28763 15.888313,-3.71001 25.63585,-3.71001 9.862893,0 18.458779,0.45121 25.668496,3.79652 7.209717,3.34531 12.804458,8.13257 16.784221,14.36176 4.037442,6.17152 6.200352,13.58311 6.488742,22.23477 H 75.442502 c -0.461422,-6.11384 -2.826209,-10.92993 -7.094362,-14.44828 -4.268152,-3.51834 -9.862892,-5.27751 -16.784221,-5.27751 -4.32583,0 -8.190238,0.69213 -11.593225,2.0764 -3.345309,1.32659 -5.998484,3.20111 -7.959527,5.62358 -1.903365,2.42247 -2.855048,5.191 -2.855048,8.30559 0,2.65318 0.74981,4.96029 2.249431,6.92133 1.499621,1.90337 3.893248,3.57602 7.180879,5.01796 3.287631,1.44195 7.555783,2.7397 12.804457,3.89325 l 12.371874,2.68202 c 6.863651,1.49962 12.804458,3.34531 17.822421,5.53706 5.017963,2.13407 9.141921,4.70073 12.371874,7.69998 3.229953,2.94156 5.623578,6.34455 7.180875,10.20896 1.5573,3.86441 2.33595,8.21907 2.33595,13.064 0,8.24792 -2.0764,15.39996 -6.229194,21.45612 -4.095119,5.99849 -9.978248,10.61271 -17.649387,13.84266 -7.613461,3.22995 -16.697705,4.84493 -27.25273,4.84493 z m 66.790821,-2.0764 V 133.59699 h 50.87176 c 9.68986,0 18.05313,1.73033 25.08981,5.191 7.03669,3.40299 12.4584,8.27675 16.26513,14.6213 3.86441,6.28687 5.79661,13.78498 5.79661,22.49432 0,8.65166 -1.9322,16.14977 -5.79661,22.49432 -3.86441,6.28687 -9.37264,11.16064 -16.52468,14.6213 -7.09436,3.46067 -15.48647,5.191 -25.17633,5.191 h -35.73136 v -22.32129 h 34.3471 c 4.72957,0 8.79585,-0.80749 12.19884,-2.42246 3.40299,-1.67265 6.02732,-4.0086 7.87301,-7.00785 1.84569,-2.99924 2.76853,-6.51758 2.76853,-10.55502 0,-4.1528 -0.92284,-7.69998 -2.76853,-10.64154 -1.84569,-2.94157 -4.47002,-5.21984 -7.87301,-6.83482 -3.40299,-1.67265 -7.46927,-2.50898 -12.19884,-2.50898 H 145.7805 v 106.58846 z"
       id="path9"
       sodipodi:nodetypes="scscccssccsccccssccsscccssccscsccccssccsccsccsccsccscssscsccc"
       style="font-weight:bold;font-size:177.186px;font-family:Inter;-inkscape-font-specification:'Inter Bold';letter-spacing:0px;word-spacing:0px;fill:#d3d3d3;stroke-width:0.506242"
       inkscape:path-effect="#path-effect1"
       inkscape:original-d="m 52.342569,264.58313 c -11.016448,0 -20.417919,-1.73033 -28.204413,-5.191 C 16.351661,255.87379 10.382016,250.79815 6.2292188,244.16521 2.0764218,237.53227 2.3275614e-5,229.5439 2.3275614e-5,220.20011 H 25.695455 c 0.115355,4.72957 1.240071,8.76701 3.374147,12.11232 2.191754,3.34531 5.277513,5.91197 9.257277,7.69998 3.979763,1.78801 8.709338,2.68202 14.188723,2.68202 4.960285,0 9.257277,-0.6633 12.890974,-1.98989 3.691375,-1.38426 6.546423,-3.31646 8.565144,-5.79661 2.076398,-2.48014 3.114597,-5.39286 3.114597,-8.73817 0,-2.76853 -0.807488,-5.16216 -2.422465,-7.18088 -1.557299,-2.0764 -4.037441,-3.89325 -7.440428,-5.45055 -3.345309,-1.5573 -7.757655,-2.91273 -13.23704,-4.06628 L 40.403277,206.53049 C 27.59882,203.76196 18.081993,199.40729 11.852798,193.46648 5.6236025,187.52567 2.5090048,179.94105 2.5090048,170.71261 c 0,-7.84417 2.0475596,-14.67898 6.1426789,-20.50443 4.0951193,-5.88313 9.8052153,-10.46851 17.1302873,-13.75614 7.382751,-3.28763 15.888313,-3.71001 25.63585,-3.71001 9.862893,0 18.458779,0.45121 25.668496,3.79652 7.209717,3.34531 12.804458,8.13257 16.784221,14.36176 4.037442,6.17152 6.200352,13.58311 6.488742,22.23477 H 75.442502 c -0.461422,-6.11384 -2.826209,-10.92993 -7.094362,-14.44828 -4.268152,-3.51834 -9.862892,-5.27751 -16.784221,-5.27751 -4.32583,0 -8.190238,0.69213 -11.593225,2.0764 -3.345309,1.32659 -5.998484,3.20111 -7.959527,5.62358 -1.903365,2.42247 -2.855048,5.191 -2.855048,8.30559 0,2.65318 0.74981,4.96029 2.249431,6.92133 1.499621,1.90337 3.893248,3.57602 7.180879,5.01796 3.287631,1.44195 7.555783,2.7397 12.804457,3.89325 l 12.371874,2.68202 c 6.863651,1.49962 12.804458,3.34531 17.822421,5.53706 5.017963,2.13407 9.141921,4.70073 12.371874,7.69998 3.229953,2.94156 5.623578,6.34455 7.180875,10.20896 1.5573,3.86441 2.33595,8.21907 2.33595,13.064 0,8.24792 -2.0764,15.39996 -6.229194,21.45612 -4.095119,5.99849 -9.978248,10.61271 -17.649387,13.84266 -7.613461,3.22995 -16.697705,4.84493 -27.25273,4.84493 z m 66.790821,-2.0764 V 133.59699 h 50.87176 c 9.68986,0 18.05313,1.73033 25.08981,5.191 7.03669,3.40299 12.4584,8.27675 16.26513,14.6213 3.86441,6.28687 5.79661,13.78498 5.79661,22.49432 0,8.65166 -1.9322,16.14977 -5.79661,22.49432 -3.86441,6.28687 -9.37264,11.16064 -16.52468,14.6213 -7.09436,3.46067 -15.48647,5.191 -25.17633,5.191 h -35.73136 v -22.32129 h 34.3471 c 4.72957,0 8.79585,-0.80749 12.19884,-2.42246 3.40299,-1.67265 6.02732,-4.0086 7.87301,-7.00785 1.84569,-2.99924 2.76853,-6.51758 2.76853,-10.55502 0,-4.1528 -0.92284,-7.69998 -2.76853,-10.64154 -1.84569,-2.94157 -4.47002,-5.21984 -7.87301,-6.83482 -3.40299,-1.67265 -7.46927,-2.50898 -12.19884,-2.50898 H 145.7805 v 106.58846 z" />
    <path
       d="m 38.734307,118.02434 11.247158,14.44828 11.506709,-14.44828 h 20.158368 v 0.0866 L 60.190425,144.1524 H 39.772506 L 18.748963,118.11087 v -0.0866 z"
       id="path1"
       style="stroke-width:1" />
  </g>
</svg>
